<svg width="75" height="75" viewBox="0 0 75 75" fill="none" xmlns="http://www.w3.org/2000/svg">
<path d="M37.5 0C30.0832 0 22.833 2.19934 16.6661 6.31989C10.4993 10.4404 5.69282 16.2971 2.85453 23.1494C0.0162482 30.0016 -0.726377 37.5416 0.720569 44.8159C2.16751 52.0902 5.73904 58.772 10.9835 64.0165C16.228 69.261 22.9098 72.8325 30.1841 74.2794C37.4584 75.7264 44.9984 74.9837 51.8506 72.1455C58.7029 69.3072 64.5596 64.5007 68.6801 58.3339C72.8007 52.167 75 44.9168 75 37.5C74.9895 27.5576 71.0352 18.0254 64.0049 10.9951C56.9746 3.96475 47.4424 0.0104993 37.5 0ZM18.0577 62.5601C20.1445 59.2964 23.0193 56.6106 26.417 54.7502C29.8148 52.8898 33.6262 51.9146 37.5 51.9146C41.3738 51.9146 45.1852 52.8898 48.583 54.7502C51.9808 56.6106 54.8555 59.2964 56.9423 62.5601C51.3834 66.8833 44.5422 69.2305 37.5 69.2305C30.4579 69.2305 23.6166 66.8833 18.0577 62.5601ZM25.9615 34.6154C25.9615 32.3333 26.6383 30.1024 27.9061 28.205C29.174 26.3075 30.9761 24.8285 33.0844 23.9552C35.1928 23.0819 37.5128 22.8534 39.751 23.2986C41.9893 23.7438 44.0452 24.8428 45.6589 26.4565C47.2726 28.0701 48.3715 30.1261 48.8168 32.3643C49.262 34.6026 49.0335 36.9226 48.1602 39.031C47.2868 41.1393 45.8079 42.9414 43.9104 44.2093C42.0129 45.4771 39.7821 46.1538 37.5 46.1538C34.4398 46.1538 31.505 44.9382 29.3411 42.7743C27.1772 40.6104 25.9615 37.6756 25.9615 34.6154ZM61.2115 58.5613C57.9944 53.8993 53.4706 50.2926 48.2091 48.1947C51.0354 45.9687 53.0977 42.9172 54.1094 39.4648C55.121 36.0123 55.0316 32.3304 53.8537 28.931C52.6757 25.5317 50.4677 22.584 47.5368 20.4977C44.6059 18.4114 41.0976 17.2903 37.5 17.2903C33.9024 17.2903 30.3942 18.4114 27.4632 20.4977C24.5323 22.584 22.3243 25.5317 21.1464 28.931C19.9684 32.3304 19.879 36.0123 20.8907 39.4648C21.9023 42.9172 23.9646 45.9687 26.7909 48.1947C21.5294 50.2926 17.0057 53.8993 13.7885 58.5613C9.72322 53.9898 7.06614 48.3405 6.1372 42.2939C5.20825 36.2472 6.04706 30.0609 8.5526 24.4799C11.0581 18.8989 15.1236 14.1612 20.2594 10.8373C25.3952 7.51332 31.3824 5.74488 37.5 5.74488C43.6176 5.74488 49.6048 7.51332 54.7406 10.8373C59.8764 14.1612 63.9419 18.8989 66.4474 24.4799C68.953 30.0609 69.7918 36.2472 68.8628 42.2939C67.9339 48.3405 65.2768 53.9898 61.2115 58.5613Z" fill="black"/>
</svg>
